<?xml version="1.0" encoding="utf-8"?>
<!-- Generator: Adobe Illustrator 16.0.0, SVG Export Plug-In . SVG Version: 6.00 Build 0)  -->
<!DOCTYPE svg PUBLIC "-//W3C//DTD SVG 1.1//EN" "http://www.w3.org/Graphics/SVG/1.1/DTD/svg11.dtd">
<svg version="1.1" id="Camada_1" xmlns="http://www.w3.org/2000/svg" xmlns:xlink="http://www.w3.org/1999/xlink" x="0px" y="0px"
	 width="200px" height="100px" viewBox="0 0 200 100" enable-background="new 0 0 200 100" xml:space="preserve">
<g>
	<path fill="#FFFFFF" d="M50.861,46.204L40.239,79.207h-5.067c-0.606,0-1.018-0.4-1.234-1.202l-6.952-21.504
		c-0.173-0.541-0.325-1.077-0.455-1.608c-0.13-0.53-0.249-1.066-0.357-1.608c-0.195,1.127-0.466,2.221-0.812,3.281l-7.049,21.439
		c-0.217,0.802-0.682,1.202-1.397,1.202h-4.808L1.453,46.204h5.002c0.498,0,0.915,0.119,1.251,0.357
		c0.335,0.239,0.557,0.542,0.666,0.91l5.944,20.27c0.195,0.823,0.368,1.624,0.52,2.403c0.151,0.78,0.292,1.56,0.422,2.339
		c0.195-0.779,0.406-1.559,0.634-2.339c0.227-0.779,0.459-1.58,0.698-2.403l6.594-20.4c0.108-0.368,0.313-0.666,0.617-0.893
		c0.303-0.228,0.671-0.341,1.104-0.341h2.761c0.476,0,0.871,0.114,1.186,0.341c0.313,0.227,0.525,0.525,0.633,0.893l6.432,20.4
		c0.238,0.823,0.466,1.63,0.682,2.42c0.216,0.791,0.411,1.587,0.585,2.388c0.13-0.779,0.281-1.564,0.455-2.355
		c0.173-0.79,0.368-1.607,0.585-2.452l6.042-20.27c0.108-0.368,0.33-0.671,0.666-0.91c0.335-0.238,0.72-0.357,1.153-0.357H50.861z"
		/>
	<path fill="#FFFFFF" d="M51.12,50.816c1.841-1.754,3.838-3.064,5.994-3.93c2.154-0.866,4.52-1.299,7.098-1.299
		c1.884,0,3.551,0.309,5.002,0.926c1.451,0.617,2.674,1.478,3.671,2.583c0.996,1.104,1.749,2.425,2.257,3.963s0.764,3.237,0.764,5.1
		v21.05H73.08c-0.628,0-1.104-0.103-1.429-0.309c-0.325-0.205-0.585-0.59-0.78-1.153l-0.682-2.891
		c-0.845,0.779-1.679,1.467-2.501,2.063c-0.823,0.596-1.684,1.104-2.583,1.526c-0.899,0.423-1.857,0.742-2.875,0.959
		c-1.018,0.216-2.144,0.324-3.378,0.324c-1.299,0-2.518-0.179-3.654-0.536c-1.137-0.357-2.128-0.903-2.973-1.64
		c-0.844-0.736-1.51-1.657-1.998-2.762s-0.731-2.393-0.731-3.865c0-1.3,0.352-2.55,1.056-3.752s1.852-2.279,3.443-3.232
		c1.592-0.952,3.671-1.732,6.237-2.339c2.566-0.605,5.722-0.952,9.469-1.039v-2.404c0-2.49-0.531-4.353-1.592-5.587
		s-2.621-1.852-4.678-1.852c-1.386,0-2.55,0.173-3.492,0.52c-0.942,0.347-1.754,0.73-2.437,1.153
		c-0.682,0.422-1.278,0.807-1.787,1.153c-0.509,0.347-1.034,0.52-1.576,0.52c-0.433,0-0.807-0.119-1.121-0.357
		s-0.568-0.52-0.763-0.845L51.12,50.816z M69.701,64.557c-2.578,0.087-4.765,0.287-6.562,0.602c-1.797,0.313-3.259,0.73-4.385,1.25
		s-1.938,1.132-2.436,1.836c-0.499,0.703-0.747,1.488-0.747,2.354c0,0.823,0.135,1.532,0.406,2.128
		c0.271,0.596,0.639,1.083,1.104,1.462c0.465,0.379,1.012,0.655,1.641,0.828c0.628,0.174,1.31,0.26,2.046,0.26
		c0.975,0,1.868-0.098,2.68-0.292c0.813-0.195,1.576-0.472,2.291-0.828c0.714-0.357,1.396-0.796,2.046-1.316
		c0.649-0.52,1.288-1.115,1.917-1.786V64.557z"/>
	<path fill="#FFFFFF" d="M108.454,46.204L90.133,88.79c-0.195,0.476-0.455,0.845-0.78,1.104c-0.325,0.26-0.801,0.39-1.429,0.39
		h-4.71l6.042-13.156L75.71,46.204h5.522c0.541,0,0.963,0.13,1.267,0.39c0.303,0.26,0.52,0.552,0.65,0.877l8.381,19.815
		c0.173,0.499,0.341,1.002,0.503,1.511c0.162,0.509,0.297,1.013,0.406,1.511c0.151-0.52,0.314-1.034,0.487-1.543
		s0.357-1.013,0.552-1.511l8.088-19.783c0.151-0.368,0.39-0.671,0.715-0.91c0.325-0.238,0.692-0.357,1.104-0.357H108.454z"/>
	<path fill="#FFFFFF" d="M122.324,79.727c-2.664,0-4.716-0.747-6.156-2.241s-2.16-3.627-2.16-6.399v-19.75h-3.833
		c-0.368,0-0.677-0.114-0.926-0.341s-0.373-0.568-0.373-1.023v-2.566l5.359-0.747l1.43-9.843c0.086-0.368,0.254-0.655,0.503-0.861
		c0.249-0.206,0.569-0.309,0.959-0.309h3.216v11.077h9.355v4.613h-9.355v19.328c0,1.299,0.319,2.269,0.958,2.907
		s1.456,0.958,2.452,0.958c0.585,0,1.089-0.075,1.511-0.228c0.423-0.151,0.785-0.319,1.089-0.503
		c0.303-0.185,0.563-0.353,0.779-0.504c0.216-0.151,0.411-0.228,0.585-0.228c0.216,0,0.384,0.049,0.503,0.146
		s0.244,0.255,0.374,0.471l1.884,3.054c-1.039,0.953-2.273,1.689-3.703,2.209S123.861,79.727,122.324,79.727z"/>
	<path fill="#FFFFFF" d="M145.42,45.684c2.426,0,4.618,0.396,6.578,1.186c1.96,0.791,3.627,1.928,5.003,3.411
		c1.375,1.483,2.431,3.27,3.167,5.359c0.735,2.091,1.104,4.435,1.104,7.033s-0.369,4.948-1.104,7.049
		c-0.736,2.101-1.792,3.888-3.167,5.36c-1.376,1.473-3.043,2.604-5.003,3.395c-1.96,0.79-4.152,1.186-6.578,1.186
		c-2.447,0-4.65-0.396-6.61-1.186c-1.96-0.791-3.633-1.922-5.019-3.395c-1.387-1.473-2.453-3.26-3.2-5.36s-1.12-4.45-1.12-7.049
		s0.373-4.942,1.12-7.033c0.747-2.09,1.813-3.876,3.2-5.359c1.386-1.483,3.059-2.62,5.019-3.411
		C140.77,46.079,142.973,45.684,145.42,45.684z M145.42,74.725c3.118,0,5.446-1.051,6.984-3.151
		c1.537-2.101,2.307-5.057,2.307-8.868s-0.77-6.772-2.307-8.885c-1.538-2.111-3.866-3.167-6.984-3.167
		c-3.162,0-5.517,1.055-7.065,3.167c-1.548,2.112-2.322,5.073-2.322,8.885s0.774,6.768,2.322,8.868
		C139.903,73.674,142.258,74.725,145.42,74.725z"/>
	<path fill="#FFFFFF" d="M179.95,32.56c2.924,0,5.43,0.282,7.52,0.845c2.09,0.563,3.806,1.375,5.149,2.437
		c1.342,1.061,2.333,2.344,2.972,3.849c0.639,1.505,0.959,3.211,0.959,5.116c0,1.126-0.174,2.209-0.521,3.249
		s-0.877,2.009-1.592,2.907c-0.714,0.899-1.613,1.705-2.695,2.419c-1.084,0.716-2.361,1.312-3.834,1.787
		c6.778,1.343,10.168,4.884,10.168,10.622c0,1.993-0.368,3.807-1.104,5.441s-1.809,3.048-3.216,4.239
		c-1.408,1.191-3.141,2.111-5.197,2.761c-2.058,0.649-4.396,0.975-7.017,0.975h-16.794V32.56H179.95z M171.667,37.985v15.267h7.958
		c3.4,0,5.929-0.687,7.585-2.063c1.657-1.375,2.485-3.232,2.485-5.571c0-2.664-0.791-4.602-2.371-5.814
		c-1.581-1.213-4.039-1.819-7.374-1.819H171.667z M181.412,73.717c1.754,0,3.253-0.205,4.499-0.617
		c1.245-0.411,2.263-0.974,3.054-1.688c0.79-0.715,1.369-1.564,1.737-2.55s0.553-2.063,0.553-3.232c0-2.317-0.802-4.142-2.404-5.474
		s-4.082-1.998-7.438-1.998h-9.745v15.56H181.412z"/>
</g>
<g>
	<path fill="#F29494" d="M112.144,8.97l0.019-0.003L112.144,8.97z"/>
	<polygon fill="#F29494" points="112.281,8.946 112.162,8.967 112.264,8.95 	"/>
	<path fill="#F29494" d="M112.016,8.996l0.006-0.001L112.016,8.996z"/>
	<path fill="#F29494" d="M112.021,8.995l0.066-0.013L112.021,8.995z"/>
	<polygon fill="#F29494" points="112.144,8.97 112.088,8.981 112.108,8.977 	"/>
	<path fill="#F29494" d="M112.392,8.926l0.013-0.002L112.392,8.926z"/>
	<path fill="#F29494" d="M149.276,26.867c0.31-0.313,1.925-0.862,3.996-1.25c2.1-0.44,4.474-0.522,5.984-0.474
		c-1.33-1.843-2.866-3.48-4.456-4.97c-3.031-2.87-6.467-5.143-10.032-6.858c-3.563-1.719-7.209-3.024-10.855-3.817
		c-7.291-1.591-14.423-1.612-20.775-0.37c-6.392,1.186-12.05,3.465-16.937,6.014c-4.896,2.559-9.042,5.443-12.57,8.243
		c-7.042,5.637-11.704,10.819-14.827,14.294c-3.106,3.508-4.692,5.372-5.033,5.175c-0.44-0.294-0.443-0.978,1.731-4.331
		c1.117-1.656,2.772-3.994,5.435-7.085c2.662-3.086,6.296-6.99,11.651-11.375c6.764-5.38,14.263-9.67,21.992-12.256
		c7.673-2.696,15.646-3.496,22.697-2.853c7.08,0.647,13.386,2.477,18.403,4.95c5.024,2.456,8.866,5.303,11.401,7.839
		c1.62,1.487,2.509,2.669,3.252,3.433c0.661,0.841,1.043,1.404,1.42,1.915c0.353-1.461,0.885-3.702,1.182-5.649
		c0.349-1.97,0.646-3.768,1.011-4.239c0.443,1.211,0.759,2.546,0.952,3.903c0.168,1.381,0.137,2.855,0.052,4.224
		c-0.148,2.735-1.007,5.4-1.6,7.222c-0.338-0.075-2.935-0.646-5.819-1.007c-1.515-0.141-3.038-0.28-4.464-0.375
		C151.58,27.122,150.295,27.035,149.276,26.867z"/>
</g>
</svg>
